<mxfile host="app.diagrams.net" agent="Mozilla/5.0 (Windows NT 10.0; Win64; x64) AppleWebKit/537.36 (KHTML, like Gecko) Chrome/129.0.0.0 Safari/537.36" version="24.7.17">
  <diagram name="페이지-1" id="V_s3bP65iqHiBs8zzOLT">
    <mxGraphModel dx="1908" dy="2285" grid="1" gridSize="10" guides="1" tooltips="1" connect="1" arrows="1" fold="1" page="1" pageScale="1" pageWidth="827" pageHeight="1169" math="0" shadow="0">
      <root>
        <mxCell id="0" />
        <mxCell id="1" parent="0" />
        <mxCell id="mzE2esd1Xusgq2G4iC6E-4" style="edgeStyle=orthogonalEdgeStyle;rounded=0;orthogonalLoop=1;jettySize=auto;html=1;exitX=0.75;exitY=0;exitDx=0;exitDy=0;entryX=0;entryY=0.5;entryDx=0;entryDy=0;" edge="1" parent="1" source="mzE2esd1Xusgq2G4iC6E-1" target="mzE2esd1Xusgq2G4iC6E-2">
          <mxGeometry relative="1" as="geometry" />
        </mxCell>
        <mxCell id="mzE2esd1Xusgq2G4iC6E-14" style="edgeStyle=orthogonalEdgeStyle;rounded=0;orthogonalLoop=1;jettySize=auto;html=1;exitX=1;exitY=0.5;exitDx=0;exitDy=0;entryX=0;entryY=0.5;entryDx=0;entryDy=0;" edge="1" parent="1" source="mzE2esd1Xusgq2G4iC6E-1" target="mzE2esd1Xusgq2G4iC6E-12">
          <mxGeometry relative="1" as="geometry" />
        </mxCell>
        <mxCell id="mzE2esd1Xusgq2G4iC6E-1" value="프로그램 실행" style="rounded=0;whiteSpace=wrap;html=1;" vertex="1" parent="1">
          <mxGeometry x="80" y="200" width="120" height="60" as="geometry" />
        </mxCell>
        <mxCell id="mzE2esd1Xusgq2G4iC6E-2" value="chat_database.db" style="rounded=0;whiteSpace=wrap;html=1;" vertex="1" parent="1">
          <mxGeometry x="240" y="40" width="120" height="60" as="geometry" />
        </mxCell>
        <mxCell id="mzE2esd1Xusgq2G4iC6E-5" value="파일 존재 여부 확인 후 없으면" style="text;html=1;align=center;verticalAlign=middle;resizable=0;points=[];autosize=1;strokeColor=none;fillColor=none;" vertex="1" parent="1">
          <mxGeometry x="60" y="40" width="180" height="30" as="geometry" />
        </mxCell>
        <mxCell id="mzE2esd1Xusgq2G4iC6E-21" style="edgeStyle=orthogonalEdgeStyle;rounded=0;orthogonalLoop=1;jettySize=auto;html=1;exitX=0.5;exitY=0;exitDx=0;exitDy=0;entryX=0;entryY=0.5;entryDx=0;entryDy=0;" edge="1" parent="1" source="mzE2esd1Xusgq2G4iC6E-12" target="mzE2esd1Xusgq2G4iC6E-20">
          <mxGeometry relative="1" as="geometry" />
        </mxCell>
        <mxCell id="mzE2esd1Xusgq2G4iC6E-45" style="edgeStyle=orthogonalEdgeStyle;rounded=0;orthogonalLoop=1;jettySize=auto;html=1;exitX=1;exitY=0.25;exitDx=0;exitDy=0;entryX=0;entryY=0.5;entryDx=0;entryDy=0;" edge="1" parent="1" source="mzE2esd1Xusgq2G4iC6E-12" target="mzE2esd1Xusgq2G4iC6E-43">
          <mxGeometry relative="1" as="geometry" />
        </mxCell>
        <mxCell id="mzE2esd1Xusgq2G4iC6E-77" style="edgeStyle=orthogonalEdgeStyle;rounded=0;orthogonalLoop=1;jettySize=auto;html=1;exitX=0.5;exitY=1;exitDx=0;exitDy=0;entryX=0.5;entryY=0;entryDx=0;entryDy=0;" edge="1" parent="1" source="mzE2esd1Xusgq2G4iC6E-12" target="mzE2esd1Xusgq2G4iC6E-76">
          <mxGeometry relative="1" as="geometry" />
        </mxCell>
        <mxCell id="mzE2esd1Xusgq2G4iC6E-12" value="LoginForm" style="rounded=0;whiteSpace=wrap;html=1;fillColor=#dae8fc;strokeColor=#6c8ebf;" vertex="1" parent="1">
          <mxGeometry x="400" y="200" width="120" height="60" as="geometry" />
        </mxCell>
        <mxCell id="mzE2esd1Xusgq2G4iC6E-32" style="edgeStyle=orthogonalEdgeStyle;rounded=0;orthogonalLoop=1;jettySize=auto;html=1;exitX=1;exitY=0.5;exitDx=0;exitDy=0;entryX=0;entryY=0.5;entryDx=0;entryDy=0;" edge="1" parent="1" source="mzE2esd1Xusgq2G4iC6E-20" target="mzE2esd1Xusgq2G4iC6E-29">
          <mxGeometry relative="1" as="geometry" />
        </mxCell>
        <mxCell id="mzE2esd1Xusgq2G4iC6E-20" value="LoginForm_Load()" style="rounded=0;whiteSpace=wrap;html=1;" vertex="1" parent="1">
          <mxGeometry x="520" y="100" width="120" height="60" as="geometry" />
        </mxCell>
        <mxCell id="mzE2esd1Xusgq2G4iC6E-22" value="config.json" style="swimlane;fontStyle=0;childLayout=stackLayout;horizontal=1;startSize=30;horizontalStack=0;resizeParent=1;resizeParentMax=0;resizeLast=0;collapsible=1;marginBottom=0;whiteSpace=wrap;html=1;fillColor=#ffe6cc;strokeColor=#d79b00;" vertex="1" parent="1">
          <mxGeometry x="720" y="-200" width="140" height="150" as="geometry" />
        </mxCell>
        <mxCell id="mzE2esd1Xusgq2G4iC6E-23" value="IpAddress" style="text;strokeColor=none;fillColor=none;align=left;verticalAlign=middle;spacingLeft=4;spacingRight=4;overflow=hidden;points=[[0,0.5],[1,0.5]];portConstraint=eastwest;rotatable=0;whiteSpace=wrap;html=1;" vertex="1" parent="mzE2esd1Xusgq2G4iC6E-22">
          <mxGeometry y="30" width="140" height="30" as="geometry" />
        </mxCell>
        <mxCell id="mzE2esd1Xusgq2G4iC6E-24" value="Port" style="text;strokeColor=none;fillColor=none;align=left;verticalAlign=middle;spacingLeft=4;spacingRight=4;overflow=hidden;points=[[0,0.5],[1,0.5]];portConstraint=eastwest;rotatable=0;whiteSpace=wrap;html=1;" vertex="1" parent="mzE2esd1Xusgq2G4iC6E-22">
          <mxGeometry y="60" width="140" height="30" as="geometry" />
        </mxCell>
        <mxCell id="mzE2esd1Xusgq2G4iC6E-25" value="UserId" style="text;strokeColor=none;fillColor=none;align=left;verticalAlign=middle;spacingLeft=4;spacingRight=4;overflow=hidden;points=[[0,0.5],[1,0.5]];portConstraint=eastwest;rotatable=0;whiteSpace=wrap;html=1;" vertex="1" parent="mzE2esd1Xusgq2G4iC6E-22">
          <mxGeometry y="90" width="140" height="30" as="geometry" />
        </mxCell>
        <mxCell id="mzE2esd1Xusgq2G4iC6E-26" value="UserPassword" style="text;strokeColor=none;fillColor=none;align=left;verticalAlign=middle;spacingLeft=4;spacingRight=4;overflow=hidden;points=[[0,0.5],[1,0.5]];portConstraint=eastwest;rotatable=0;whiteSpace=wrap;html=1;" vertex="1" parent="mzE2esd1Xusgq2G4iC6E-22">
          <mxGeometry y="120" width="140" height="30" as="geometry" />
        </mxCell>
        <mxCell id="mzE2esd1Xusgq2G4iC6E-36" style="edgeStyle=orthogonalEdgeStyle;rounded=0;orthogonalLoop=1;jettySize=auto;html=1;exitX=1;exitY=0.5;exitDx=0;exitDy=0;entryX=0;entryY=0.5;entryDx=0;entryDy=0;" edge="1" parent="1" source="mzE2esd1Xusgq2G4iC6E-29" target="mzE2esd1Xusgq2G4iC6E-30">
          <mxGeometry relative="1" as="geometry" />
        </mxCell>
        <mxCell id="mzE2esd1Xusgq2G4iC6E-29" value="LoadConfig()" style="rounded=0;whiteSpace=wrap;html=1;" vertex="1" parent="1">
          <mxGeometry x="720" y="100" width="120" height="60" as="geometry" />
        </mxCell>
        <mxCell id="mzE2esd1Xusgq2G4iC6E-37" style="edgeStyle=orthogonalEdgeStyle;rounded=0;orthogonalLoop=1;jettySize=auto;html=1;exitX=1;exitY=0.5;exitDx=0;exitDy=0;entryX=0;entryY=0.5;entryDx=0;entryDy=0;" edge="1" parent="1" source="mzE2esd1Xusgq2G4iC6E-30" target="mzE2esd1Xusgq2G4iC6E-31">
          <mxGeometry relative="1" as="geometry" />
        </mxCell>
        <mxCell id="mzE2esd1Xusgq2G4iC6E-30" value="ConnectToServer()" style="rounded=0;whiteSpace=wrap;html=1;" vertex="1" parent="1">
          <mxGeometry x="920" y="100" width="120" height="60" as="geometry" />
        </mxCell>
        <mxCell id="mzE2esd1Xusgq2G4iC6E-41" style="edgeStyle=orthogonalEdgeStyle;rounded=0;orthogonalLoop=1;jettySize=auto;html=1;exitX=0.25;exitY=1;exitDx=0;exitDy=0;entryX=0.75;entryY=0;entryDx=0;entryDy=0;" edge="1" parent="1" source="mzE2esd1Xusgq2G4iC6E-31" target="mzE2esd1Xusgq2G4iC6E-12">
          <mxGeometry relative="1" as="geometry" />
        </mxCell>
        <mxCell id="mzE2esd1Xusgq2G4iC6E-31" value="LoadLoginInfo()" style="rounded=0;whiteSpace=wrap;html=1;" vertex="1" parent="1">
          <mxGeometry x="1120.5" y="100" width="120" height="60" as="geometry" />
        </mxCell>
        <mxCell id="mzE2esd1Xusgq2G4iC6E-34" value="서버 ip와 port번호 가져오기" style="text;html=1;align=center;verticalAlign=middle;resizable=0;points=[];autosize=1;strokeColor=none;fillColor=none;" vertex="1" parent="1">
          <mxGeometry x="610" width="170" height="30" as="geometry" />
        </mxCell>
        <mxCell id="mzE2esd1Xusgq2G4iC6E-35" value="" style="endArrow=classic;startArrow=classic;html=1;rounded=0;exitX=0.5;exitY=0;exitDx=0;exitDy=0;entryX=0.425;entryY=1.1;entryDx=0;entryDy=0;entryPerimeter=0;" edge="1" parent="1" source="mzE2esd1Xusgq2G4iC6E-29" target="mzE2esd1Xusgq2G4iC6E-26">
          <mxGeometry width="50" height="50" relative="1" as="geometry">
            <mxPoint x="790" y="80" as="sourcePoint" />
            <mxPoint x="790" y="-30" as="targetPoint" />
          </mxGeometry>
        </mxCell>
        <mxCell id="mzE2esd1Xusgq2G4iC6E-39" value="" style="endArrow=classic;startArrow=classic;html=1;rounded=0;entryX=0.25;entryY=0;entryDx=0;entryDy=0;exitX=1;exitY=0.5;exitDx=0;exitDy=0;" edge="1" parent="1" source="mzE2esd1Xusgq2G4iC6E-25" target="mzE2esd1Xusgq2G4iC6E-31">
          <mxGeometry width="50" height="50" relative="1" as="geometry">
            <mxPoint x="790" y="80" as="sourcePoint" />
            <mxPoint x="840" y="30" as="targetPoint" />
            <Array as="points">
              <mxPoint x="1150" y="-95" />
            </Array>
          </mxGeometry>
        </mxCell>
        <mxCell id="mzE2esd1Xusgq2G4iC6E-40" value="저장한 로그인 정보 가져오기" style="text;html=1;align=center;verticalAlign=middle;resizable=0;points=[];autosize=1;strokeColor=none;fillColor=none;" vertex="1" parent="1">
          <mxGeometry x="950" y="-132" width="180" height="30" as="geometry" />
        </mxCell>
        <mxCell id="mzE2esd1Xusgq2G4iC6E-42" value="config.json파일에 저장된 로그인 정보를 아이디,비밀번호 텍스트박스에 채우기." style="text;html=1;align=center;verticalAlign=middle;resizable=0;points=[];autosize=1;strokeColor=none;fillColor=none;" vertex="1" parent="1">
          <mxGeometry x="880" y="180" width="440" height="30" as="geometry" />
        </mxCell>
        <mxCell id="mzE2esd1Xusgq2G4iC6E-50" style="edgeStyle=orthogonalEdgeStyle;rounded=0;orthogonalLoop=1;jettySize=auto;html=1;exitX=1;exitY=0.5;exitDx=0;exitDy=0;entryX=0;entryY=0.5;entryDx=0;entryDy=0;" edge="1" parent="1" source="mzE2esd1Xusgq2G4iC6E-43" target="mzE2esd1Xusgq2G4iC6E-46">
          <mxGeometry relative="1" as="geometry" />
        </mxCell>
        <mxCell id="mzE2esd1Xusgq2G4iC6E-43" value="btnLogin_Click()" style="rounded=0;whiteSpace=wrap;html=1;" vertex="1" parent="1">
          <mxGeometry x="620" y="230" width="120" height="60" as="geometry" />
        </mxCell>
        <mxCell id="mzE2esd1Xusgq2G4iC6E-57" style="edgeStyle=orthogonalEdgeStyle;rounded=0;orthogonalLoop=1;jettySize=auto;html=1;exitX=-0.01;exitY=0.182;exitDx=0;exitDy=0;exitPerimeter=0;entryX=1;entryY=0.5;entryDx=0;entryDy=0;" edge="1" parent="1" source="mzE2esd1Xusgq2G4iC6E-44" target="mzE2esd1Xusgq2G4iC6E-62">
          <mxGeometry relative="1" as="geometry">
            <mxPoint x="750" y="398" as="targetPoint" />
          </mxGeometry>
        </mxCell>
        <mxCell id="mzE2esd1Xusgq2G4iC6E-97" style="edgeStyle=orthogonalEdgeStyle;rounded=0;orthogonalLoop=1;jettySize=auto;html=1;exitX=0;exitY=0;exitDx=0;exitDy=190;exitPerimeter=0;entryX=1;entryY=0.5;entryDx=0;entryDy=0;" edge="1" parent="1" source="mzE2esd1Xusgq2G4iC6E-44" target="mzE2esd1Xusgq2G4iC6E-91">
          <mxGeometry relative="1" as="geometry" />
        </mxCell>
        <mxCell id="mzE2esd1Xusgq2G4iC6E-44" value="server" style="shape=cube;whiteSpace=wrap;html=1;boundedLbl=1;backgroundOutline=1;darkOpacity=0.05;darkOpacity2=0.1;fillColor=#d5e8d4;strokeColor=#82b366;" vertex="1" parent="1">
          <mxGeometry x="1400" y="360" width="310" height="210" as="geometry" />
        </mxCell>
        <mxCell id="mzE2esd1Xusgq2G4iC6E-46" value="PacketHeader" style="rounded=0;whiteSpace=wrap;html=1;" vertex="1" parent="1">
          <mxGeometry x="880" y="230" width="120" height="60" as="geometry" />
        </mxCell>
        <mxCell id="mzE2esd1Xusgq2G4iC6E-51" style="edgeStyle=orthogonalEdgeStyle;rounded=0;orthogonalLoop=1;jettySize=auto;html=1;exitX=1;exitY=0.5;exitDx=0;exitDy=0;entryX=0.248;entryY=-0.005;entryDx=0;entryDy=0;entryPerimeter=0;" edge="1" parent="1" source="mzE2esd1Xusgq2G4iC6E-46" target="mzE2esd1Xusgq2G4iC6E-44">
          <mxGeometry relative="1" as="geometry" />
        </mxCell>
        <mxCell id="mzE2esd1Xusgq2G4iC6E-52" style="edgeStyle=orthogonalEdgeStyle;rounded=0;orthogonalLoop=1;jettySize=auto;html=1;exitX=0.75;exitY=1;exitDx=0;exitDy=0;entryX=0;entryY=0;entryDx=50.00000000000001;entryDy=0;entryPerimeter=0;" edge="1" parent="1" source="mzE2esd1Xusgq2G4iC6E-43" target="mzE2esd1Xusgq2G4iC6E-44">
          <mxGeometry relative="1" as="geometry" />
        </mxCell>
        <mxCell id="mzE2esd1Xusgq2G4iC6E-53" value="패킷 헤더를 먼저 보냄" style="text;html=1;align=center;verticalAlign=middle;resizable=0;points=[];autosize=1;strokeColor=none;fillColor=none;" vertex="1" parent="1">
          <mxGeometry x="1240" y="228" width="140" height="30" as="geometry" />
        </mxCell>
        <mxCell id="mzE2esd1Xusgq2G4iC6E-54" value="로그인 정보를 보냄" style="text;html=1;align=center;verticalAlign=middle;resizable=0;points=[];autosize=1;strokeColor=none;fillColor=none;" vertex="1" parent="1">
          <mxGeometry x="1205" y="298" width="130" height="30" as="geometry" />
        </mxCell>
        <mxCell id="mzE2esd1Xusgq2G4iC6E-58" style="edgeStyle=orthogonalEdgeStyle;rounded=0;orthogonalLoop=1;jettySize=auto;html=1;exitX=0;exitY=0;exitDx=0;exitDy=95;exitPerimeter=0;" edge="1" parent="1" source="mzE2esd1Xusgq2G4iC6E-44" target="mzE2esd1Xusgq2G4iC6E-66">
          <mxGeometry relative="1" as="geometry">
            <mxPoint x="620" y="465" as="targetPoint" />
          </mxGeometry>
        </mxCell>
        <mxCell id="mzE2esd1Xusgq2G4iC6E-60" value="패킷 헤더를 보냄" style="text;html=1;align=center;verticalAlign=middle;resizable=0;points=[];autosize=1;strokeColor=none;fillColor=none;" vertex="1" parent="1">
          <mxGeometry x="1215" y="368" width="110" height="30" as="geometry" />
        </mxCell>
        <mxCell id="mzE2esd1Xusgq2G4iC6E-61" value="패킷 데이터를 보냄" style="text;html=1;align=center;verticalAlign=middle;resizable=0;points=[];autosize=1;strokeColor=none;fillColor=none;" vertex="1" parent="1">
          <mxGeometry x="1205" y="428" width="130" height="30" as="geometry" />
        </mxCell>
        <mxCell id="mzE2esd1Xusgq2G4iC6E-64" style="edgeStyle=orthogonalEdgeStyle;rounded=0;orthogonalLoop=1;jettySize=auto;html=1;exitX=0;exitY=0.5;exitDx=0;exitDy=0;entryX=1;entryY=0.5;entryDx=0;entryDy=0;" edge="1" parent="1" source="mzE2esd1Xusgq2G4iC6E-62" target="mzE2esd1Xusgq2G4iC6E-63">
          <mxGeometry relative="1" as="geometry" />
        </mxCell>
        <mxCell id="mzE2esd1Xusgq2G4iC6E-62" value="BeginReceiveHeader()" style="rounded=0;whiteSpace=wrap;html=1;" vertex="1" parent="1">
          <mxGeometry x="720" y="368" width="120" height="60" as="geometry" />
        </mxCell>
        <mxCell id="mzE2esd1Xusgq2G4iC6E-65" style="edgeStyle=orthogonalEdgeStyle;rounded=0;orthogonalLoop=1;jettySize=auto;html=1;exitX=0;exitY=0.5;exitDx=0;exitDy=0;entryX=0.75;entryY=1;entryDx=0;entryDy=0;" edge="1" parent="1" source="mzE2esd1Xusgq2G4iC6E-63" target="mzE2esd1Xusgq2G4iC6E-12">
          <mxGeometry relative="1" as="geometry" />
        </mxCell>
        <mxCell id="mzE2esd1Xusgq2G4iC6E-63" value="OnHeaderReceive()" style="rounded=0;whiteSpace=wrap;html=1;" vertex="1" parent="1">
          <mxGeometry x="520" y="368" width="120" height="60" as="geometry" />
        </mxCell>
        <mxCell id="mzE2esd1Xusgq2G4iC6E-68" style="edgeStyle=orthogonalEdgeStyle;rounded=0;orthogonalLoop=1;jettySize=auto;html=1;exitX=0;exitY=0.5;exitDx=0;exitDy=0;entryX=1;entryY=0.5;entryDx=0;entryDy=0;" edge="1" parent="1" source="mzE2esd1Xusgq2G4iC6E-66" target="mzE2esd1Xusgq2G4iC6E-67">
          <mxGeometry relative="1" as="geometry" />
        </mxCell>
        <mxCell id="mzE2esd1Xusgq2G4iC6E-66" value="BeginReceiveMessage()" style="rounded=0;whiteSpace=wrap;html=1;" vertex="1" parent="1">
          <mxGeometry x="920" y="450" width="120" height="60" as="geometry" />
        </mxCell>
        <mxCell id="mzE2esd1Xusgq2G4iC6E-70" style="edgeStyle=orthogonalEdgeStyle;rounded=0;orthogonalLoop=1;jettySize=auto;html=1;exitX=0;exitY=0.5;exitDx=0;exitDy=0;entryX=1;entryY=0.5;entryDx=0;entryDy=0;" edge="1" parent="1" source="mzE2esd1Xusgq2G4iC6E-67" target="mzE2esd1Xusgq2G4iC6E-69">
          <mxGeometry relative="1" as="geometry" />
        </mxCell>
        <mxCell id="mzE2esd1Xusgq2G4iC6E-67" value="OnMessageReceive()" style="rounded=0;whiteSpace=wrap;html=1;" vertex="1" parent="1">
          <mxGeometry x="720" y="450" width="120" height="60" as="geometry" />
        </mxCell>
        <mxCell id="mzE2esd1Xusgq2G4iC6E-75" style="edgeStyle=orthogonalEdgeStyle;rounded=0;orthogonalLoop=1;jettySize=auto;html=1;exitX=0;exitY=0.5;exitDx=0;exitDy=0;entryX=0.5;entryY=0;entryDx=0;entryDy=0;" edge="1" parent="1" source="mzE2esd1Xusgq2G4iC6E-69" target="mzE2esd1Xusgq2G4iC6E-71">
          <mxGeometry relative="1" as="geometry" />
        </mxCell>
        <mxCell id="mzE2esd1Xusgq2G4iC6E-69" value="Recv_userList()" style="rounded=0;whiteSpace=wrap;html=1;" vertex="1" parent="1">
          <mxGeometry x="520" y="450" width="120" height="60" as="geometry" />
        </mxCell>
        <mxCell id="mzE2esd1Xusgq2G4iC6E-71" value="userList.json" style="swimlane;fontStyle=0;childLayout=stackLayout;horizontal=1;startSize=30;horizontalStack=0;resizeParent=1;resizeParentMax=0;resizeLast=0;collapsible=1;marginBottom=0;whiteSpace=wrap;html=1;fillColor=#ffe6cc;strokeColor=#d79b00;" vertex="1" parent="1">
          <mxGeometry x="344" y="500" width="140" height="120" as="geometry" />
        </mxCell>
        <mxCell id="mzE2esd1Xusgq2G4iC6E-72" value="user_id" style="text;strokeColor=none;fillColor=none;align=left;verticalAlign=middle;spacingLeft=4;spacingRight=4;overflow=hidden;points=[[0,0.5],[1,0.5]];portConstraint=eastwest;rotatable=0;whiteSpace=wrap;html=1;" vertex="1" parent="mzE2esd1Xusgq2G4iC6E-71">
          <mxGeometry y="30" width="140" height="30" as="geometry" />
        </mxCell>
        <mxCell id="mzE2esd1Xusgq2G4iC6E-73" value="user_name" style="text;strokeColor=none;fillColor=none;align=left;verticalAlign=middle;spacingLeft=4;spacingRight=4;overflow=hidden;points=[[0,0.5],[1,0.5]];portConstraint=eastwest;rotatable=0;whiteSpace=wrap;html=1;" vertex="1" parent="mzE2esd1Xusgq2G4iC6E-71">
          <mxGeometry y="60" width="140" height="30" as="geometry" />
        </mxCell>
        <mxCell id="mzE2esd1Xusgq2G4iC6E-74" value="user_nickname" style="text;strokeColor=none;fillColor=none;align=left;verticalAlign=middle;spacingLeft=4;spacingRight=4;overflow=hidden;points=[[0,0.5],[1,0.5]];portConstraint=eastwest;rotatable=0;whiteSpace=wrap;html=1;" vertex="1" parent="mzE2esd1Xusgq2G4iC6E-71">
          <mxGeometry y="90" width="140" height="30" as="geometry" />
        </mxCell>
        <mxCell id="mzE2esd1Xusgq2G4iC6E-90" style="edgeStyle=orthogonalEdgeStyle;rounded=0;orthogonalLoop=1;jettySize=auto;html=1;exitX=0.75;exitY=1;exitDx=0;exitDy=0;entryX=0;entryY=0.5;entryDx=0;entryDy=0;" edge="1" parent="1" source="mzE2esd1Xusgq2G4iC6E-76" target="mzE2esd1Xusgq2G4iC6E-89">
          <mxGeometry relative="1" as="geometry" />
        </mxCell>
        <mxCell id="mzE2esd1Xusgq2G4iC6E-94" style="edgeStyle=orthogonalEdgeStyle;rounded=0;orthogonalLoop=1;jettySize=auto;html=1;exitX=0.5;exitY=1;exitDx=0;exitDy=0;entryX=0;entryY=0.5;entryDx=0;entryDy=0;" edge="1" parent="1" source="mzE2esd1Xusgq2G4iC6E-76" target="mzE2esd1Xusgq2G4iC6E-93">
          <mxGeometry relative="1" as="geometry" />
        </mxCell>
        <mxCell id="mzE2esd1Xusgq2G4iC6E-76" value="MainForm" style="rounded=0;whiteSpace=wrap;html=1;fillColor=#dae8fc;strokeColor=#6c8ebf;" vertex="1" parent="1">
          <mxGeometry x="80" y="640" width="120" height="60" as="geometry" />
        </mxCell>
        <mxCell id="mzE2esd1Xusgq2G4iC6E-78" value="LoadFriendList()" style="rounded=0;whiteSpace=wrap;html=1;" vertex="1" parent="1">
          <mxGeometry x="320" y="670" width="120" height="60" as="geometry" />
        </mxCell>
        <mxCell id="mzE2esd1Xusgq2G4iC6E-84" value="" style="endArrow=classic;startArrow=classic;html=1;rounded=0;entryX=0.249;entryY=1.062;entryDx=0;entryDy=0;entryPerimeter=0;exitX=0.612;exitY=-0.029;exitDx=0;exitDy=0;exitPerimeter=0;" edge="1" parent="1" source="mzE2esd1Xusgq2G4iC6E-78" target="mzE2esd1Xusgq2G4iC6E-74">
          <mxGeometry width="50" height="50" relative="1" as="geometry">
            <mxPoint x="540" y="830" as="sourcePoint" />
            <mxPoint x="590" y="780" as="targetPoint" />
          </mxGeometry>
        </mxCell>
        <mxCell id="mzE2esd1Xusgq2G4iC6E-86" value="" style="endArrow=classic;startArrow=classic;html=1;rounded=0;entryX=0.25;entryY=0;entryDx=0;entryDy=0;exitX=1;exitY=0.5;exitDx=0;exitDy=0;" edge="1" parent="1" source="mzE2esd1Xusgq2G4iC6E-76" target="mzE2esd1Xusgq2G4iC6E-78">
          <mxGeometry width="50" height="50" relative="1" as="geometry">
            <mxPoint x="540" y="830" as="sourcePoint" />
            <mxPoint x="590" y="780" as="targetPoint" />
          </mxGeometry>
        </mxCell>
        <mxCell id="mzE2esd1Xusgq2G4iC6E-87" value="친구목록에 추가" style="text;html=1;align=center;verticalAlign=middle;resizable=0;points=[];autosize=1;strokeColor=none;fillColor=none;" vertex="1" parent="1">
          <mxGeometry x="220" y="640" width="110" height="30" as="geometry" />
        </mxCell>
        <mxCell id="mzE2esd1Xusgq2G4iC6E-92" style="edgeStyle=orthogonalEdgeStyle;rounded=0;orthogonalLoop=1;jettySize=auto;html=1;exitX=1;exitY=0.5;exitDx=0;exitDy=0;entryX=0.5;entryY=0;entryDx=0;entryDy=0;" edge="1" parent="1" source="mzE2esd1Xusgq2G4iC6E-89" target="mzE2esd1Xusgq2G4iC6E-91">
          <mxGeometry relative="1" as="geometry" />
        </mxCell>
        <mxCell id="mzE2esd1Xusgq2G4iC6E-89" value="MainForm_Load()" style="rounded=0;whiteSpace=wrap;html=1;" vertex="1" parent="1">
          <mxGeometry x="320" y="760" width="120" height="60" as="geometry" />
        </mxCell>
        <mxCell id="mzE2esd1Xusgq2G4iC6E-105" style="edgeStyle=orthogonalEdgeStyle;rounded=0;orthogonalLoop=1;jettySize=auto;html=1;exitX=0;exitY=0.5;exitDx=0;exitDy=0;entryX=1;entryY=0.5;entryDx=0;entryDy=0;" edge="1" parent="1" source="mzE2esd1Xusgq2G4iC6E-91" target="mzE2esd1Xusgq2G4iC6E-99">
          <mxGeometry relative="1" as="geometry" />
        </mxCell>
        <mxCell id="mzE2esd1Xusgq2G4iC6E-91" value="Begin_Recv()" style="rounded=0;whiteSpace=wrap;html=1;" vertex="1" parent="1">
          <mxGeometry x="640" y="960" width="120" height="60" as="geometry" />
        </mxCell>
        <mxCell id="mzE2esd1Xusgq2G4iC6E-93" value="LbFriends_DoubleClick()" style="rounded=0;whiteSpace=wrap;html=1;" vertex="1" parent="1">
          <mxGeometry x="320" y="850" width="120" height="60" as="geometry" />
        </mxCell>
        <mxCell id="mzE2esd1Xusgq2G4iC6E-95" style="edgeStyle=orthogonalEdgeStyle;rounded=0;orthogonalLoop=1;jettySize=auto;html=1;exitX=1;exitY=0.5;exitDx=0;exitDy=0;entryX=-0.003;entryY=0.798;entryDx=0;entryDy=0;entryPerimeter=0;" edge="1" parent="1" source="mzE2esd1Xusgq2G4iC6E-93" target="mzE2esd1Xusgq2G4iC6E-44">
          <mxGeometry relative="1" as="geometry" />
        </mxCell>
        <mxCell id="mzE2esd1Xusgq2G4iC6E-96" value="채팅방 생성 요청" style="text;html=1;align=center;verticalAlign=middle;resizable=0;points=[];autosize=1;strokeColor=none;fillColor=none;" vertex="1" parent="1">
          <mxGeometry x="925" y="540" width="110" height="30" as="geometry" />
        </mxCell>
        <mxCell id="mzE2esd1Xusgq2G4iC6E-106" style="edgeStyle=orthogonalEdgeStyle;rounded=0;orthogonalLoop=1;jettySize=auto;html=1;exitX=0;exitY=0.5;exitDx=0;exitDy=0;entryX=1;entryY=0.5;entryDx=0;entryDy=0;" edge="1" parent="1" source="mzE2esd1Xusgq2G4iC6E-99" target="mzE2esd1Xusgq2G4iC6E-100">
          <mxGeometry relative="1" as="geometry" />
        </mxCell>
        <mxCell id="mzE2esd1Xusgq2G4iC6E-99" value="Recv_Header()" style="rounded=0;whiteSpace=wrap;html=1;" vertex="1" parent="1">
          <mxGeometry x="440" y="960" width="120" height="60" as="geometry" />
        </mxCell>
        <mxCell id="mzE2esd1Xusgq2G4iC6E-107" style="edgeStyle=orthogonalEdgeStyle;rounded=0;orthogonalLoop=1;jettySize=auto;html=1;exitX=0;exitY=0.5;exitDx=0;exitDy=0;entryX=1;entryY=0.5;entryDx=0;entryDy=0;" edge="1" parent="1" source="mzE2esd1Xusgq2G4iC6E-100" target="mzE2esd1Xusgq2G4iC6E-101">
          <mxGeometry relative="1" as="geometry" />
        </mxCell>
        <mxCell id="mzE2esd1Xusgq2G4iC6E-100" value="Begin_RecvMessage()" style="rounded=0;whiteSpace=wrap;html=1;" vertex="1" parent="1">
          <mxGeometry x="240" y="960" width="120" height="60" as="geometry" />
        </mxCell>
        <mxCell id="mzE2esd1Xusgq2G4iC6E-103" style="edgeStyle=orthogonalEdgeStyle;rounded=0;orthogonalLoop=1;jettySize=auto;html=1;exitX=0.5;exitY=1;exitDx=0;exitDy=0;entryX=0.5;entryY=0;entryDx=0;entryDy=0;" edge="1" parent="1" source="mzE2esd1Xusgq2G4iC6E-101" target="mzE2esd1Xusgq2G4iC6E-102">
          <mxGeometry relative="1" as="geometry" />
        </mxCell>
        <mxCell id="mzE2esd1Xusgq2G4iC6E-101" value="OnMessageReceive()" style="rounded=0;whiteSpace=wrap;html=1;" vertex="1" parent="1">
          <mxGeometry x="40" y="960" width="120" height="60" as="geometry" />
        </mxCell>
        <mxCell id="mzE2esd1Xusgq2G4iC6E-104" style="edgeStyle=orthogonalEdgeStyle;rounded=0;orthogonalLoop=1;jettySize=auto;html=1;exitX=0;exitY=0.5;exitDx=0;exitDy=0;entryX=0;entryY=0.5;entryDx=0;entryDy=0;" edge="1" parent="1" source="mzE2esd1Xusgq2G4iC6E-102" target="mzE2esd1Xusgq2G4iC6E-76">
          <mxGeometry relative="1" as="geometry">
            <Array as="points">
              <mxPoint x="10" y="1110" />
              <mxPoint x="10" y="670" />
            </Array>
          </mxGeometry>
        </mxCell>
        <mxCell id="mzE2esd1Xusgq2G4iC6E-114" style="edgeStyle=orthogonalEdgeStyle;rounded=0;orthogonalLoop=1;jettySize=auto;html=1;exitX=0.5;exitY=1;exitDx=0;exitDy=0;entryX=0.5;entryY=0;entryDx=0;entryDy=0;" edge="1" parent="1" source="mzE2esd1Xusgq2G4iC6E-102" target="mzE2esd1Xusgq2G4iC6E-110">
          <mxGeometry relative="1" as="geometry" />
        </mxCell>
        <mxCell id="mzE2esd1Xusgq2G4iC6E-102" value="AddMessage()" style="rounded=0;whiteSpace=wrap;html=1;" vertex="1" parent="1">
          <mxGeometry x="160" y="1080" width="120" height="60" as="geometry" />
        </mxCell>
        <mxCell id="mzE2esd1Xusgq2G4iC6E-108" value="채팅 추가" style="text;html=1;align=center;verticalAlign=middle;resizable=0;points=[];autosize=1;strokeColor=none;fillColor=none;" vertex="1" parent="1">
          <mxGeometry x="5" y="1108" width="70" height="30" as="geometry" />
        </mxCell>
        <mxCell id="mzE2esd1Xusgq2G4iC6E-110" value="confog_msg.json" style="swimlane;fontStyle=0;childLayout=stackLayout;horizontal=1;startSize=30;horizontalStack=0;resizeParent=1;resizeParentMax=0;resizeLast=0;collapsible=1;marginBottom=0;whiteSpace=wrap;html=1;" vertex="1" parent="1">
          <mxGeometry x="150" y="1240" width="140" height="90" as="geometry" />
        </mxCell>
        <mxCell id="mzE2esd1Xusgq2G4iC6E-111" value="message_text" style="text;strokeColor=none;fillColor=none;align=left;verticalAlign=middle;spacingLeft=4;spacingRight=4;overflow=hidden;points=[[0,0.5],[1,0.5]];portConstraint=eastwest;rotatable=0;whiteSpace=wrap;html=1;" vertex="1" parent="mzE2esd1Xusgq2G4iC6E-110">
          <mxGeometry y="30" width="140" height="30" as="geometry" />
        </mxCell>
        <mxCell id="mzE2esd1Xusgq2G4iC6E-112" value="message_user_id" style="text;strokeColor=none;fillColor=none;align=left;verticalAlign=middle;spacingLeft=4;spacingRight=4;overflow=hidden;points=[[0,0.5],[1,0.5]];portConstraint=eastwest;rotatable=0;whiteSpace=wrap;html=1;" vertex="1" parent="mzE2esd1Xusgq2G4iC6E-110">
          <mxGeometry y="60" width="140" height="30" as="geometry" />
        </mxCell>
        <mxCell id="mzE2esd1Xusgq2G4iC6E-115" value="채팅 내용 저장" style="text;html=1;align=center;verticalAlign=middle;resizable=0;points=[];autosize=1;strokeColor=none;fillColor=none;" vertex="1" parent="1">
          <mxGeometry x="220" y="1169" width="100" height="30" as="geometry" />
        </mxCell>
      </root>
    </mxGraphModel>
  </diagram>
</mxfile>
